# xmcd CD database file generated by OrangeCD 5.2
#
# Track frame offsets:
#	151
#	12734
#	27074
#	41724
#	55019
#	70309
#	85189
#	104731
#	122844
#	138559
#	155321
#	170256
#	187014
#	202225
#	217531
#	231809
#	246279
#	262571
#	280646
#	295811
#
# Disc length: 4149 seconds
#
# Revision: 3
# Processed by: cddbd v1.5.1PL0 Copyright (c) Steve Scherf et al.
# Submitted via: OrangeCD 5.2
#
DISCID=1d103314
DTITLE=The Bellamy Brothers - Best Of The Best
DYEAR=2000
DGENRE=Country
TTITLE0=Let Your Love Flow
TTITLE1=If I Said You Had A Beautiful Body
TTITLE2=Dancin' Cowboys
TTITLE3=Do You Love As Good As You Look
TTITLE4=Redneck Girl
TTITLE5=Lovers Live Longer
TTITLE6=You Ain't Just Whistlin' Dixie
TTITLE7=Old Hippie
TTITLE8=Sugar Daddy
TTITLE9=Santa Fe
TTITLE10=How Can You Be Everywhere At The Same Time
TTITLE11=For All The Wrong Reasons
TTITLE12=Big Love
TTITLE13=I Need More Of You
TTITLE14=Get Your Priorities In Line
TTITLE15=A Little Naive
TTITLE16=Crazy From The Heart
TTITLE17=We Don't Wanna Go For It
TTITLE18=Can't I Come Home To You
TTITLE19=You'll Never Be Sorry
EXTD=
EXTT0=
EXTT1=
EXTT2=
EXTT3=
EXTT4=
EXTT5=
EXTT6=
EXTT7=
EXTT8=
EXTT9=
EXTT10=
EXTT11=
EXTT12=
EXTT13=
EXTT14=
EXTT15=
EXTT16=
EXTT17=
EXTT18=
EXTT19=
PLAYORDER=
